PathFileType	4	(X/Y/Z)	RUN4																																																													
DataRate	CameraRate	NumFrames	NumMarkers	Units	OrigDataRate	OrigDataStartFrame	OrigNumFrames																																																									
15	15	6	21	mm	15	145	577																																																									
Frame#	Time	SpineBase			SpineMid			Neck			Head			ShoulderLeft			ElbowLeft			WristLeft			HandLeft			ShoulderRight			ElbowRight			WristRight			HandRight			HipLeft			KneeLeft			AnkleLeft			FootLeft			HipRight			KneeRight			AnkleRight			FootRight			SpineShoulder		
		X1	Y1	Z1	X2	Y2	Z2	X3	Y3	Z3	X4	Y4	Z4	X5	Y5	Z5	X6	Y6	Z6	X7	Y7	Z7	X8	Y8	Z8	X9	Y9	Z9	X10	Y10	Z10	X11	Y11	Z11	X12	Y12	Z12	X13	Y13	Z13	X14	Y14	Z14	X15	Y15	Z15	X16	Y16	Z16	X17	Y17	Z17	X18	Y18	Z18	X19	Y19	Z19	X20	Y20	Z20	X21	Y21	Z21
																																																																
145	9.6	982.69	691.1343	-195.10695	1005.401	1017.549042	-176.44135	1043.097	1333.3382	-154.55465	1047.555	1453.8645	-77.20325	1137.19	1222.469	-275.53775	1177.951	1029.01278	-415.04505	1226.325	802.6866	-387.88965	1223.425	738.9244	-362.46445	916.832	1222.0132	-27.80695	807.497	942.6414	-16.45235	890.774	729.4231	-3.91895	910.816	729.2572	11.71725	1065.187	704.0956	-254.57825	1167.443	389.8334	-201.96805	1234.202	-169.287	-154.72605	1344.728	-184.336	-72.95135	976.366	689.8884	-117.32095	904.499	330.4973	-326.47135	861.874	-71.071	-406.63945	995.809	-64.248	-431.31695	1031.151	1255.8894	-160.56985
146	9.666666667	1006.701	681.758	-177.27465	1025.174	1011.6704	-158.29935	1059.297	1330.4145	-136.25475	1063.284	1444.2855	-51.41325	1158.138	1214.5493	-250.19885	1200.442	1023.157932	-390.38795	1256.153	794.178	-354.63515	1249.403	727.4383	-330.34435	953.041	1188.4354	-7.15735	815.704	924.48875	-4.34435	895.421	712.2332	28.73505	912.168	694.1358	33.04245	1091.947	696.1975	-236.94875	1177.874	380.0774	-177.24645	1216.333	-181.552	-144.78255	1327.328	-199.494	-69.42845	997.781	679.5622	-99.68955	913.486	329.6018	-317.81985	866.431	-67.242	-415.34925	1003.014	-74.569	-419.19175	1048.181	1252.2797	-142.29745
147	9.733333333	1020.922	676.6959	-164.78895	1040.7	1007.568615	-141.48555	1075.799	1327.7109	-114.87615	1076.703	1439.2352	-25.66945	1177.697	1208.6171	-227.10785	1225.101	1017.596239	-361.52055	1279.404	791.2936	-328.53485	1275.322	718.3963	-300.46785	961.32	1186.0299	0.02185	850.742	907.7399	16.99635	905.595	689.4109	51.51605	906.26	673.6725	52.87335	1107.231	691.7517	-224.09985	1184.26	376.9363	-149.62685	1204.011	-185.558	-154.99195	1311.129	-207.871	-81.76945	1010.791	674.1806	-87.97035	935.587	313.066	-294.05495	850.384	-57.949	-444.23515	957.618	-110.109	-396.36645	1064.475	1249.1949	-122.05515
148	9.8	1048.393	670.5693	-141.36135	1061.959	1005.13452	-118.19765	1091.726	1328.1637	-92.26295	1085.915	1437.2191	-6.88385	1198.267	1205.2978	-195.67655	1254.944	1015.060866	-328.81525	1309.155	784.6354	-289.07065	1294.597	706.045	-260.20715	991.267	1170.9364	26.20375	869.614	898.0795	33.03875	869.332	674.8977	56.42665	894.573	666.1646	64.82545	1139.803	684.9176	-200.14435	1186.609	367.9327	-127.82935	1203.387	-193.586	-156.34915	1317.357	-216.098	-86.99515	1033.658	669.0234	-65.67515	945.586	316.5022	-279.24235	887.778	-58.374	-435.90815	982.539	-115.459	-376.53185	1081.657	1249.0028	-99.22465
149	9.866666667	1062.931	672.2823	-130.77505	1077.319	1007.27333	-101.97745	1107.324	1330.9456	-69.75405	1100.956	1433.8691	22.79055	1215.953	1204.3952	-173.65295	1275.922	1017.575891	-301.13245	1327.95	780.4542	-255.72045	1313.228	701.2971	-226.36365	994.074	1184.4603	39.21295	874.956	910.155	48.98365	851.848	688.4788	51.80265	879.759	674.6451	73.71885	1157.146	688.8731	-185.67115	1199.406	372.0164	-110.80465	1198.847	-187.49	-161.14085	1306.851	-214.031	-90.38345	1045.36	669.0202	-58.65755	957.592	307.4888	-258.14285	914.548	-59.678	-437.45245	987.817	-113.125	-355.24495	1097.262	1251.6153	-78.31745
150	9.933333333	1055.306	669.2545	-71.88275	1081.548	1007.725954	-62.95985	1119.221	1333.7754	-48.74605	1108.045	1433.4996	43.91505	1233.891	1205.5653	-142.91235	1299.453	1016.545178	-269.42175	1349.961	785.2611	-215.86945	1337.777	699.4244	-189.72225	999.859	1193.8245	54.24935	881.723	918.89076	64.12135	846.177	699.914	54.21675	869.255	677.2197	78.32375	1152.101	684.861	-123.43175	1209.741	362.0483	-107.52505	1196.167	-197.411	-150.15575	1292.308	-225.875	-63.57525	1035.123	666.6843	-5.92135	972.459	310.0062	-229.90065	944.387	-60.041	-407.92795	1003.601	46.2827	-344.43165	1107.489	1253.9503	-53.61685
